#!OML:ASF H:\MichaelJackson\Top Level 1\Subject 1\Session 1\male.ASF
:FULLY-SPECIFIED
:DEGREES
897
root 5.14669 17.2197 4.71752 5.75777 9.35798 -4.93605
lowerback -0.845025 2.68146 3.29236
upperback 3.63334 3.38775 2.75927
thorax 4.24781 1.74895 1.16343
lowerneck -8.5483 -6.11438 1.63799
upperneck 37.3322 -9.2497 -0.0504586
head 14.0957 -3.6782 -1.57169
rclavicle 1.50082e-014 -3.02153e-014
rhumerus -23.1287 34.4197 -87.1089
rradius 135.601
rwrist -10.5168
rhand -46.6854 -60.7022
rfingers 7.12502
rthumb -19.4049 630.246
lclavicle 1.50082e-014 -3.02153e-014
lhumerus -62.4932 -10.3431 96.1391
lradius 52.6463
lwrist 10.2637
lhand -0.840384 10.872
lfingers 7.12502
lthumb 24.7852 39.2859
rfemur -16.4651 -9.06977 29.6729
rtibia 33.7379
rfoot -14.2032 1.18304
rtoes 20.0065
lfemur -35.9515 -3.34467 -15.09
ltibia 58.8775
lfoot -1.04846 -7.29251
ltoes 35.6047
898
root 5.16024 17.2694 4.73798 5.81183 9.41885 -4.32273
lowerback -0.712169 2.57465 2.93275
upperback 3.70511 3.26886 2.49286
thorax 4.23981 1.68292 1.07793
lowerneck -8.53527 -6.0596 1.5734
upperneck 37.4141 -9.18337 0.0208228
head 14.1409 -3.64678 -1.52567
rclavicle -2.127e-014 2.06736e-014
rhumerus -23.4125 34.5309 -87.2984
rradius 135.503
rwrist -10.4162
rhand -46.6967 -60.6138
rfingers 7.12502
rthumb -19.4157 630.336
lclavicle -2.127e-014 2.06736e-014
lhumerus -62.323 -10.4757 95.9784
lradius 52.6367
lwrist 10.1437
lhand -0.815724 10.752
lfingers 7.12502
lthumb 24.8088 39.1627
rfemur -17.2281 -9.18967 28.9975
rtibia 35.0806
rfoot -13.051 0.957913
rtoes 17.6063
lfemur -35.1079 -3.31949 -15.9621
ltibia 57.5464
lfoot -1.61426 -7.68465
ltoes 35.9403
899
root 5.17621 17.326 4.75621 5.89695 9.38595 -3.75753
lowerback -0.576704 2.47981 2.61415
upperback 3.76619 3.16352 2.25137
thorax 4.22076 1.62436 0.996205
lowerneck -8.54401 -5.98635 1.49044
upperneck 37.5231 -9.07369 0.0515677
head 14.202 -3.60338 -1.4884
rclavicle 1.93815e-014 8.34896e-015
rhumerus -23.6537 34.6994 -87.4374
rradius 135.417
rwrist -10.3244
rhand -46.722 -60.4404
rfingers 7.12502
rthumb -19.44 630.511
lclavicle 1.93815e-014 8.34896e-015
lhumerus -62.1048 -10.4951 95.7962
lradius 52.5981
lwrist 10.0546
lhand -0.707735 10.6533
lfingers 7.12502
lthumb 24.9123 39.0497
rfemur -18.2412 -9.44523 28.3549
rtibia 36.734
rfoot -11.6918 0.989238
rtoes 15.3137
lfemur -34.2284 -3.24269 -16.7812
ltibia 56.1089
lfoot -2.3598 -8.20723
ltoes 35.7841
900
root 5.1946 17.3785 4.77157 6.02065 9.24721 -3.22784
lowerback -0.449535 2.40262 2.31614
upperback 3.81767 3.07949 2.03189
thorax 4.19685 1.57657 0.927343
lowerneck -8.58264 -5.89445 1.39549
upperneck 37.6506 -8.92238 0.0442153
head 14.2767 -3.54789 -1.46028
rclavicle -1.8487e-014 -9.93923e-015
rhumerus -23.8428 34.914 -87.5216
rradius 135.351
rwrist -10.2365
rhand -46.751 -60.2153
rfingers 7.12502
rthumb -19.4679 630.739
lclavicle -1.8487e-014 -9.93923e-015
lhumerus -61.8403 -10.4032 95.5911
lradius 52.5407
lwrist 10.0052
lhand -0.544036 10.5788
lfingers 7.12502
lthumb 25.0692 38.9533
rfemur -19.5564 -9.80583 27.7352
rtibia 38.7471
rfoot -10.0724 1.2552
rtoes 13.3943
lfemur -33.3734 -3.11782 -17.5573
ltibia 54.6222
lfoot -3.22918 -8.80979
ltoes 35.1746
901
root 5.21486 17.4257 4.78439 6.18628 8.9969 -2.71318
lowerback -0.341715 2.34785 2.01173
upperback 3.86301 3.02377 1.82682
thorax 4.17681 1.54231 0.879264
lowerneck -8.65431 -5.78711 1.29809
upperneck 37.779 -8.73725 0.00427131
head 14.3573 -3.48239 -1.4414
rclavicle -3.40916e-014 -3.06128e-014
rhumerus -23.9634 35.1517 -87.5381
rradius 135.316
rwrist -10.1835
rhand -46.7847 -59.9651
rfingers 7.12502
rthumb -19.5003 630.993
lclavicle -3.40916e-014 -3.06128e-014
lhumerus -61.5409 -10.2151 95.3615
lradius 52.4862
lwrist 9.99191
lhand -0.353296 10.5157
lfingers 7.12502
lthumb 25.2519 38.8646
rfemur -21.173 -10.2356 27.1234
rtibia 41.0833
rfoot -8.10334 1.7081
rtoes 12.0703
lfemur -32.5444 -2.94654 -18.3085
ltibia 53.0776
lfoot -4.14026 -9.42904
ltoes 34.1647
902
root 5.23617 17.4669 4.79527 6.39123 8.6409 -2.19081
lowerback -0.239069 2.31163 1.67189
upperback 3.89415 2.99297 1.62656
thorax 4.1431 1.51902 0.856919
lowerneck -8.7597 -5.66347 1.20225
upperneck 37.9016 -8.52054 -0.0599857
head 14.4415 -3.40662 -1.42925
rclavicle -9.93923e-016 -2.54444e-014
rhumerus -24.0294 35.4005 -87.5077
rradius 135.321
rwrist -10.1742
rhand -46.8184 -59.7108
rfingers 7.12502
rthumb -19.5327 631.25
lclavicle -9.93923e-016 -2.54444e-014
lhumerus -61.2366 -9.93814 95.1035
lradius 52.45
lwrist 10.0065
lhand -0.152916 10.4689
lfingers 7.12502
lthumb 25.4439 38.7906
rfemur -23.0979 -10.6931 26.5026
rtibia 43.7499
rfoot -5.73477 2.27314
rtoes 11.703
lfemur -31.749 -2.73717 -19.0556
ltibia 51.5088
lfoot -5.02224 -10.0009
ltoes 32.8687
903
root 5.25782 17.5022 4.80501 6.62809 8.19497 -1.64811
lowerback -0.151137 2.29299 1.28432
upperback 3.91729 2.98594 1.42195
thorax 4.10738 1.50599 0.858253
lowerneck -8.89351 -5.52735 1.11772
upperneck 37.9941 -8.28304 -0.136369
head 14.5167 -3.32329 -1.42113
rclavicle 2.67365e-014 1.78906e-014
rhumerus -24.0273 35.6373 -87.4277
rradius 135.372
rwrist -10.2079
rhand -46.8465 -59.4556
rfingers 7.12502
rthumb -19.5597 631.508
lclavicle 2.67365e-014 1.78906e-014
lhumerus -60.9534 -9.6115 94.823
lradius 52.4621
lwrist 10.0619
lhand 0.0367335 10.3992
lfingers 7.12502
lthumb 25.6256 38.6949
rfemur -25.3011 -11.1527 25.8712
rtibia 46.6823
rfoot -2.91907 2.85341
rtoes 12.6633
lfemur -30.9779 -2.50261 -19.8095
ltibia 49.9145
lfoot -5.77025 -10.4588
ltoes 31.4538
904
root 5.27899 17.5319 4.81467 6.88037 7.68351 -1.07305
lowerback -0.0775568 2.28719 0.83842
upperback 3.93789 2.99687 1.20425
thorax 4.07494 1.50016 0.880008
lowerneck -9.04843 -5.38391 1.04798
upperneck 38.0383 -8.03724 -0.211089
head 14.5733 -3.23613 -1.41296
rclavicle -5.20816e-014 0
rhumerus -23.9589 35.8488 -87.3099
rradius 135.467
rwrist -10.2755
rhand -46.8764 -59.2141
rfingers 7.12502
rthumb -19.5885 631.753
lclavicle -5.20816e-014 0
lhumerus -60.7152 -9.27578 94.5288
lradius 52.5444
lwrist 10.1667
lhand 0.191652 10.3194
lfingers 7.12502
lthumb 25.7739 38.5937
rfemur -27.7253 -11.5979 25.2252
rtibia 49.79
rfoot 0.310944 3.32774
rtoes 15.3283
lfemur -30.2057 -2.2544 -20.5819
ltibia 48.2837
lfoot -6.28051 -10.7623
ltoes 30.103
905
root 5.29898 17.5566 4.82526 7.12775 7.13486 -0.462963
lowerback -0.0150373 2.29019 0.333062
upperback 3.95991 3.02063 0.970247
thorax 4.04813 1.49902 0.919241
lowerneck -9.20738 -5.23988 0.99081
upperneck 38.0197 -7.79615 -0.271382
head 14.6012 -3.14986 -1.39988
rclavicle -6.26172e-015 -1.70955e-014
rhumerus -23.8365 36.0148 -87.1691
rradius 135.605
rwrist -10.3573
rhand -46.9056 -58.9815
rfingers 7.12502
rthumb -19.6165 631.988
lclavicle -6.26172e-015 -1.70955e-014
lhumerus -60.5392 -8.97291 94.2357
lradius 52.7038
lwrist 10.3266
lhand 0.317902 10.2275
lfingers 7.12502
lthumb 25.8948 38.4841
rfemur -30.2931 -12.0311 24.5707
rtibia 52.9711
rfoot 3.82951 3.583
rtoes 19.4992
lfemur -29.4023 -1.99793 -21.3755
ltibia 46.6027
lfoot -6.45727 -10.8769
ltoes 28.9355
906
root 5.31749 17.5763 4.83742 7.35206 6.57808 0.169207
lowerback 0.0426292 2.29565 -0.214598
upperback 3.98446 3.04842 0.723142
thorax 4.02536 1.4987 0.969057
lowerneck -9.361 -5.09924 0.943849
upperneck 37.9361 -7.56745 -0.310806
head 14.5975 -3.06717 -1.37958
rclavicle 1.70955e-014 1.31198e-014
rhumerus -23.6603 36.1371 -87.0091
rradius 135.772
rwrist -10.4377
rhand -46.9398 -58.7756
rfingers 7.12502
rthumb -19.6494 632.197
lclavicle 1.70955e-014 1.31198e-014
lhumerus -60.4341 -8.72743 93.9583
lradius 52.9355
lwrist 10.5456
lhand 0.402486 10.1222
lfingers 7.12502
lthumb 25.9758 38.367
rfemur -32.9225 -12.4505 23.9262
rtibia 56.1236
rfoot 7.38511 3.57599
rtoes 24.5261
lfemur -28.5488 -1.73541 -22.1774
ltibia 44.8659
lfoot -6.25108 -10.8836
ltoes 28.3839
